# xmcd
#
# Track frame offsets:
#	150
#	17328
#	32305
#	53379
#	68033
#
# Disc length: 1080 seconds
#
# Revision: 1
# Processed by: cddbd v1.5.1PL0 Copyright (c) Steve Scherf et al.
# Submitted via: audiograbber 1.83.01
#
DISCID=28043605
DTITLE=Knopf and The Troublemakers - Springtime
DYEAR=2003
DGENRE=Rock
TTITLE0=Tomorrow
TTITLE1=Rattlesnake Trail
TTITLE2=Stone On The Road
TTITLE3=Julia
TTITLE4=My Dream
EXTD=www.knopf-music.ch
EXTT0=
EXTT1=
EXTT2=
EXTT3=
EXTT4=
PLAYORDER=
